<?xml version="1.0" encoding="UTF-8"?>
<!DOCTYPE svg PUBLIC "-//W3C//DTD SVG 1.1//EN" "http://www.w3.org/Graphics/SVG/1.1/DTD/svg11.dtd">
<svg xmlns="http://www.w3.org/2000/svg" version="1.1" width="1536px" height="1536px" style="shape-rendering:geometricPrecision; text-rendering:geometricPrecision; image-rendering:optimizeQuality; fill-rule:evenodd; clip-rule:evenodd" xmlns:xlink="http://www.w3.org/1999/xlink">
<g><path style="opacity:1" fill="#5c350c" d="M 575.5,63.5 C 575.5,84.8333 575.5,106.167 575.5,127.5C 554.167,127.5 532.833,127.5 511.5,127.5C 490.167,127.5 468.833,127.5 447.5,127.5C 447.5,106.167 447.5,84.8333 447.5,63.5C 490.167,63.5 532.833,63.5 575.5,63.5 Z"/></g>
<g><path style="opacity:1" fill="#b65a00" d="M 575.5,63.5 C 639.5,63.5 703.5,63.5 767.5,63.5C 767.5,84.8333 767.5,106.167 767.5,127.5C 746.167,127.5 724.833,127.5 703.5,127.5C 682.167,127.5 660.833,127.5 639.5,127.5C 618.167,127.5 596.833,127.5 575.5,127.5C 575.5,106.167 575.5,84.8333 575.5,63.5 Z"/></g>
<g><path style="opacity:1" fill="#000000" d="M 383.5,127.5 C 383.5,148.833 383.5,170.167 383.5,191.5C 362.167,191.5 340.833,191.5 319.5,191.5C 319.5,170.167 319.5,148.833 319.5,127.5C 340.833,127.5 362.167,127.5 383.5,127.5 Z"/></g>
<g><path style="opacity:1" fill="#5c350c" d="M 383.5,127.5 C 404.833,127.5 426.167,127.5 447.5,127.5C 447.5,148.833 447.5,170.167 447.5,191.5C 426.167,191.5 404.833,191.5 383.5,191.5C 383.5,170.167 383.5,148.833 383.5,127.5 Z"/></g>
<g><path style="opacity:1" fill="#fecc64" d="M 447.5,127.5 C 468.833,127.5 490.167,127.5 511.5,127.5C 511.5,148.833 511.5,170.167 511.5,191.5C 490.167,191.5 468.833,191.5 447.5,191.5C 447.5,170.167 447.5,148.833 447.5,127.5 Z"/></g>
<g><path style="opacity:1" fill="#f89832" d="M 511.5,127.5 C 532.833,127.5 554.167,127.5 575.5,127.5C 596.833,127.5 618.167,127.5 639.5,127.5C 639.5,148.833 639.5,170.167 639.5,191.5C 596.833,191.5 554.167,191.5 511.5,191.5C 511.5,170.167 511.5,148.833 511.5,127.5 Z"/></g>
<g><path style="opacity:1" fill="#fecc64" d="M 639.5,127.5 C 660.833,127.5 682.167,127.5 703.5,127.5C 703.5,148.833 703.5,170.167 703.5,191.5C 724.833,191.5 746.167,191.5 767.5,191.5C 788.833,191.5 810.167,191.5 831.5,191.5C 831.5,212.833 831.5,234.167 831.5,255.5C 810.167,255.5 788.833,255.5 767.5,255.5C 724.833,255.5 682.167,255.5 639.5,255.5C 639.5,234.167 639.5,212.833 639.5,191.5C 639.5,170.167 639.5,148.833 639.5,127.5 Z"/></g>
<g><path style="opacity:1" fill="#f89832" d="M 703.5,127.5 C 724.833,127.5 746.167,127.5 767.5,127.5C 767.5,148.833 767.5,170.167 767.5,191.5C 746.167,191.5 724.833,191.5 703.5,191.5C 703.5,170.167 703.5,148.833 703.5,127.5 Z"/></g>
<g><path style="opacity:1" fill="#b65a00" d="M 767.5,127.5 C 810.167,127.5 852.833,127.5 895.5,127.5C 895.5,148.833 895.5,170.167 895.5,191.5C 874.167,191.5 852.833,191.5 831.5,191.5C 810.167,191.5 788.833,191.5 767.5,191.5C 767.5,170.167 767.5,148.833 767.5,127.5 Z"/></g>
<g><path style="opacity:1" fill="#000000" d="M 319.5,191.5 C 319.5,212.833 319.5,234.167 319.5,255.5C 298.167,255.5 276.833,255.5 255.5,255.5C 255.5,234.167 255.5,212.833 255.5,191.5C 276.833,191.5 298.167,191.5 319.5,191.5 Z"/></g>
<g><path style="opacity:1" fill="#f89832" d="M 319.5,191.5 C 340.833,191.5 362.167,191.5 383.5,191.5C 383.5,212.833 383.5,234.167 383.5,255.5C 362.167,255.5 340.833,255.5 319.5,255.5C 319.5,234.167 319.5,212.833 319.5,191.5 Z"/></g>
<g><path style="opacity:1" fill="#fecc64" d="M 383.5,191.5 C 404.833,191.5 426.167,191.5 447.5,191.5C 447.5,212.833 447.5,234.167 447.5,255.5C 426.167,255.5 404.833,255.5 383.5,255.5C 383.5,234.167 383.5,212.833 383.5,191.5 Z"/></g>
<g><path style="opacity:1" fill="#f89832" d="M 447.5,191.5 C 468.833,191.5 490.167,191.5 511.5,191.5C 511.5,212.833 511.5,234.167 511.5,255.5C 490.167,255.5 468.833,255.5 447.5,255.5C 447.5,234.167 447.5,212.833 447.5,191.5 Z"/></g>
<g><path style="opacity:1" fill="#fef59a" d="M 511.5,191.5 C 554.167,191.5 596.833,191.5 639.5,191.5C 639.5,212.833 639.5,234.167 639.5,255.5C 596.833,255.5 554.167,255.5 511.5,255.5C 511.5,234.167 511.5,212.833 511.5,191.5 Z"/></g>
<g><path style="opacity:1" fill="#f89832" d="M 831.5,191.5 C 852.833,191.5 874.167,191.5 895.5,191.5C 895.5,212.833 895.5,234.167 895.5,255.5C 916.833,255.5 938.167,255.5 959.5,255.5C 959.5,298.167 959.5,340.833 959.5,383.5C 938.167,383.5 916.833,383.5 895.5,383.5C 895.5,362.167 895.5,340.833 895.5,319.5C 874.167,319.5 852.833,319.5 831.5,319.5C 831.5,298.167 831.5,276.833 831.5,255.5C 831.5,234.167 831.5,212.833 831.5,191.5 Z"/></g>
<g><path style="opacity:1" fill="#b65a00" d="M 895.5,191.5 C 916.833,191.5 938.167,191.5 959.5,191.5C 959.5,212.833 959.5,234.167 959.5,255.5C 959.5,234.167 959.5,212.833 959.5,191.5C 938.167,191.5 916.833,191.5 895.5,191.5 Z"/></g>
<g><path style="opacity:1" fill="#000000" d="M 255.5,255.5 C 255.5,276.833 255.5,298.167 255.5,319.5C 255.5,340.833 255.5,362.167 255.5,383.5C 255.5,404.833 255.5,426.167 255.5,447.5C 255.5,468.833 255.5,490.167 255.5,511.5C 234.167,511.5 212.833,511.5 191.5,511.5C 191.5,426.167 191.5,340.833 191.5,255.5C 212.833,255.5 234.167,255.5 255.5,255.5 Z"/></g>
<g><path style="opacity:1" fill="#b65a00" d="M 255.5,255.5 C 276.833,255.5 298.167,255.5 319.5,255.5C 319.5,276.833 319.5,298.167 319.5,319.5C 298.167,319.5 276.833,319.5 255.5,319.5C 255.5,298.167 255.5,276.833 255.5,255.5 Z"/></g>
<g><path style="opacity:1" fill="#fecc64" d="M 319.5,255.5 C 340.833,255.5 362.167,255.5 383.5,255.5C 383.5,276.833 383.5,298.167 383.5,319.5C 362.167,319.5 340.833,319.5 319.5,319.5C 319.5,298.167 319.5,276.833 319.5,255.5 Z"/></g>
<g><path style="opacity:1" fill="#b65a00" d="M 383.5,255.5 C 404.833,255.5 426.167,255.5 447.5,255.5C 447.5,276.833 447.5,298.167 447.5,319.5C 426.167,319.5 404.833,319.5 383.5,319.5C 383.5,298.167 383.5,276.833 383.5,255.5 Z"/></g>
<g><path style="opacity:1" fill="#fef59a" d="M 447.5,255.5 C 468.833,255.5 490.167,255.5 511.5,255.5C 511.5,276.833 511.5,298.167 511.5,319.5C 490.167,319.5 468.833,319.5 447.5,319.5C 447.5,298.167 447.5,276.833 447.5,255.5 Z"/></g>
<g><path style="opacity:1" fill="#fecc64" d="M 511.5,255.5 C 554.167,255.5 596.833,255.5 639.5,255.5C 639.5,276.833 639.5,298.167 639.5,319.5C 596.833,319.5 554.167,319.5 511.5,319.5C 511.5,298.167 511.5,276.833 511.5,255.5 Z"/></g>
<g><path style="opacity:1" fill="#5c350c" d="M 639.5,255.5 C 682.167,255.5 724.833,255.5 767.5,255.5C 767.5,276.833 767.5,298.167 767.5,319.5C 724.833,319.5 682.167,319.5 639.5,319.5C 639.5,298.167 639.5,276.833 639.5,255.5 Z"/></g>
<g><path style="opacity:1" fill="#b65a00" d="M 767.5,255.5 C 788.833,255.5 810.167,255.5 831.5,255.5C 831.5,276.833 831.5,298.167 831.5,319.5C 852.833,319.5 874.167,319.5 895.5,319.5C 895.5,340.833 895.5,362.167 895.5,383.5C 852.833,383.5 810.167,383.5 767.5,383.5C 724.833,383.5 682.167,383.5 639.5,383.5C 639.5,362.167 639.5,340.833 639.5,319.5C 682.167,319.5 724.833,319.5 767.5,319.5C 767.5,298.167 767.5,276.833 767.5,255.5 Z"/></g>
<g><path style="opacity:1" fill="#5c350c" d="M 959.5,255.5 C 980.833,255.5 1002.17,255.5 1023.5,255.5C 1023.5,298.167 1023.5,340.833 1023.5,383.5C 1002.17,383.5 980.833,383.5 959.5,383.5C 959.5,340.833 959.5,298.167 959.5,255.5 Z"/></g>
<g><path style="opacity:1" fill="#f89832" d="M 255.5,319.5 C 276.833,319.5 298.167,319.5 319.5,319.5C 319.5,340.833 319.5,362.167 319.5,383.5C 298.167,383.5 276.833,383.5 255.5,383.5C 255.5,362.167 255.5,340.833 255.5,319.5 Z"/></g>
<g><path style="opacity:1" fill="#b65a00" d="M 319.5,319.5 C 340.833,319.5 362.167,319.5 383.5,319.5C 383.5,340.833 383.5,362.167 383.5,383.5C 362.167,383.5 340.833,383.5 319.5,383.5C 319.5,362.167 319.5,340.833 319.5,319.5 Z"/></g>
<g><path style="opacity:1" fill="#fef59a" d="M 383.5,319.5 C 404.833,319.5 426.167,319.5 447.5,319.5C 447.5,340.833 447.5,362.167 447.5,383.5C 426.167,383.5 404.833,383.5 383.5,383.5C 383.5,362.167 383.5,340.833 383.5,319.5 Z"/></g>
<g><path style="opacity:1" fill="#fecc64" d="M 447.5,319.5 C 468.833,319.5 490.167,319.5 511.5,319.5C 511.5,340.833 511.5,362.167 511.5,383.5C 490.167,383.5 468.833,383.5 447.5,383.5C 447.5,362.167 447.5,340.833 447.5,319.5 Z"/></g>
<g><path style="opacity:1" fill="#5c350c" d="M 511.5,319.5 C 554.167,319.5 596.833,319.5 639.5,319.5C 639.5,340.833 639.5,362.167 639.5,383.5C 639.5,404.833 639.5,426.167 639.5,447.5C 596.833,447.5 554.167,447.5 511.5,447.5C 490.167,447.5 468.833,447.5 447.5,447.5C 426.167,447.5 404.833,447.5 383.5,447.5C 383.5,426.167 383.5,404.833 383.5,383.5C 404.833,383.5 426.167,383.5 447.5,383.5C 468.833,383.5 490.167,383.5 511.5,383.5C 511.5,362.167 511.5,340.833 511.5,319.5 Z"/></g>
<g><path style="opacity:1" fill="#b65a00" d="M 255.5,383.5 C 276.833,383.5 298.167,383.5 319.5,383.5C 319.5,404.833 319.5,426.167 319.5,447.5C 298.167,447.5 276.833,447.5 255.5,447.5C 255.5,426.167 255.5,404.833 255.5,383.5 Z"/></g>
<g><path style="opacity:1" fill="#f89832" d="M 319.5,383.5 C 340.833,383.5 362.167,383.5 383.5,383.5C 383.5,404.833 383.5,426.167 383.5,447.5C 362.167,447.5 340.833,447.5 319.5,447.5C 319.5,426.167 319.5,404.833 319.5,383.5 Z"/></g>
<g><path style="opacity:1" fill="#f89832" d="M 639.5,383.5 C 682.167,383.5 724.833,383.5 767.5,383.5C 767.5,404.833 767.5,426.167 767.5,447.5C 767.5,468.833 767.5,490.167 767.5,511.5C 724.833,511.5 682.167,511.5 639.5,511.5C 639.5,490.167 639.5,468.833 639.5,447.5C 639.5,426.167 639.5,404.833 639.5,383.5 Z"/></g>
<g><path style="opacity:1" fill="#5c350c" d="M 767.5,383.5 C 810.167,383.5 852.833,383.5 895.5,383.5C 895.5,404.833 895.5,426.167 895.5,447.5C 874.167,447.5 852.833,447.5 831.5,447.5C 810.167,447.5 788.833,447.5 767.5,447.5C 767.5,426.167 767.5,404.833 767.5,383.5 Z"/></g>
<g><path style="opacity:1" fill="#b65a00" d="M 895.5,383.5 C 916.833,383.5 938.167,383.5 959.5,383.5C 959.5,426.167 959.5,468.833 959.5,511.5C 938.167,511.5 916.833,511.5 895.5,511.5C 895.5,490.167 895.5,468.833 895.5,447.5C 895.5,426.167 895.5,404.833 895.5,383.5 Z"/></g>
<g><path style="opacity:1" fill="#000000" d="M 959.5,383.5 C 980.833,383.5 1002.17,383.5 1023.5,383.5C 1023.5,426.167 1023.5,468.833 1023.5,511.5C 1002.17,511.5 980.833,511.5 959.5,511.5C 959.5,468.833 959.5,426.167 959.5,383.5 Z"/></g>
<g><path style="opacity:1" fill="#5c350c" d="M 255.5,447.5 C 276.833,447.5 298.167,447.5 319.5,447.5C 340.833,447.5 362.167,447.5 383.5,447.5C 383.5,468.833 383.5,490.167 383.5,511.5C 383.5,532.833 383.5,554.167 383.5,575.5C 362.167,575.5 340.833,575.5 319.5,575.5C 319.5,554.167 319.5,532.833 319.5,511.5C 298.167,511.5 276.833,511.5 255.5,511.5C 255.5,490.167 255.5,468.833 255.5,447.5 Z"/></g>
<g><path style="opacity:1" fill="#b65a00" d="M 383.5,447.5 C 404.833,447.5 426.167,447.5 447.5,447.5C 447.5,468.833 447.5,490.167 447.5,511.5C 426.167,511.5 404.833,511.5 383.5,511.5C 383.5,490.167 383.5,468.833 383.5,447.5 Z"/></g>
<g><path style="opacity:1" fill="#99a0af" d="M 447.5,447.5 C 468.833,447.5 490.167,447.5 511.5,447.5C 511.5,468.833 511.5,490.167 511.5,511.5C 490.167,511.5 468.833,511.5 447.5,511.5C 447.5,490.167 447.5,468.833 447.5,447.5 Z"/></g>
<g><path style="opacity:1" fill="#000000" d="M 511.5,447.5 C 554.167,447.5 596.833,447.5 639.5,447.5C 639.5,468.833 639.5,490.167 639.5,511.5C 639.5,532.833 639.5,554.167 639.5,575.5C 596.833,575.5 554.167,575.5 511.5,575.5C 511.5,554.167 511.5,532.833 511.5,511.5C 511.5,490.167 511.5,468.833 511.5,447.5 Z"/></g>
<g><path style="opacity:1" fill="#000000" d="M 767.5,447.5 C 788.833,447.5 810.167,447.5 831.5,447.5C 831.5,468.833 831.5,490.167 831.5,511.5C 831.5,532.833 831.5,554.167 831.5,575.5C 810.167,575.5 788.833,575.5 767.5,575.5C 767.5,554.167 767.5,532.833 767.5,511.5C 767.5,490.167 767.5,468.833 767.5,447.5 Z"/></g>
<g><path style="opacity:1" fill="#99a0af" d="M 831.5,447.5 C 852.833,447.5 874.167,447.5 895.5,447.5C 895.5,468.833 895.5,490.167 895.5,511.5C 874.167,511.5 852.833,511.5 831.5,511.5C 831.5,490.167 831.5,468.833 831.5,447.5 Z"/></g>
<g><path style="opacity:1" fill="#000000" d="M 255.5,511.5 C 276.833,511.5 298.167,511.5 319.5,511.5C 319.5,532.833 319.5,554.167 319.5,575.5C 298.167,575.5 276.833,575.5 255.5,575.5C 255.5,554.167 255.5,532.833 255.5,511.5 Z"/></g>
<g><path style="opacity:1" fill="#f89832" d="M 383.5,511.5 C 404.833,511.5 426.167,511.5 447.5,511.5C 447.5,532.833 447.5,554.167 447.5,575.5C 426.167,575.5 404.833,575.5 383.5,575.5C 383.5,554.167 383.5,532.833 383.5,511.5 Z"/></g>
<g><path style="opacity:1" fill="#fefffe" d="M 447.5,511.5 C 468.833,511.5 490.167,511.5 511.5,511.5C 511.5,532.833 511.5,554.167 511.5,575.5C 511.5,596.833 511.5,618.167 511.5,639.5C 490.167,639.5 468.833,639.5 447.5,639.5C 447.5,618.167 447.5,596.833 447.5,575.5C 447.5,554.167 447.5,532.833 447.5,511.5 Z"/></g>
<g><path style="opacity:1" fill="#fef59a" d="M 639.5,511.5 C 682.167,511.5 724.833,511.5 767.5,511.5C 767.5,532.833 767.5,554.167 767.5,575.5C 767.5,596.833 767.5,618.167 767.5,639.5C 767.5,660.833 767.5,682.167 767.5,703.5C 746.167,703.5 724.833,703.5 703.5,703.5C 660.833,703.5 618.167,703.5 575.5,703.5C 575.5,682.167 575.5,660.833 575.5,639.5C 596.833,639.5 618.167,639.5 639.5,639.5C 639.5,618.167 639.5,596.833 639.5,575.5C 639.5,554.167 639.5,532.833 639.5,511.5 Z"/></g>
<g><path style="opacity:1" fill="#fefffe" d="M 831.5,511.5 C 852.833,511.5 874.167,511.5 895.5,511.5C 895.5,532.833 895.5,554.167 895.5,575.5C 874.167,575.5 852.833,575.5 831.5,575.5C 831.5,554.167 831.5,532.833 831.5,511.5 Z"/></g>
<g><path style="opacity:1" fill="#000000" d="M 895.5,511.5 C 916.833,511.5 938.167,511.5 959.5,511.5C 959.5,532.833 959.5,554.167 959.5,575.5C 959.5,596.833 959.5,618.167 959.5,639.5C 938.167,639.5 916.833,639.5 895.5,639.5C 895.5,618.167 895.5,596.833 895.5,575.5C 895.5,554.167 895.5,532.833 895.5,511.5 Z"/></g>
<g><path style="opacity:1" fill="#4b5f71" d="M 255.5,575.5 C 276.833,575.5 298.167,575.5 319.5,575.5C 319.5,596.833 319.5,618.167 319.5,639.5C 298.167,639.5 276.833,639.5 255.5,639.5C 234.167,639.5 212.833,639.5 191.5,639.5C 191.5,618.167 191.5,596.833 191.5,575.5C 212.833,575.5 234.167,575.5 255.5,575.5 Z"/></g>
<g><path style="opacity:1" fill="#000000" d="M 319.5,575.5 C 340.833,575.5 362.167,575.5 383.5,575.5C 383.5,596.833 383.5,618.167 383.5,639.5C 362.167,639.5 340.833,639.5 319.5,639.5C 319.5,618.167 319.5,596.833 319.5,575.5 Z"/></g>
<g><path style="opacity:1" fill="#5c350c" d="M 383.5,575.5 C 404.833,575.5 426.167,575.5 447.5,575.5C 447.5,596.833 447.5,618.167 447.5,639.5C 426.167,639.5 404.833,639.5 383.5,639.5C 383.5,618.167 383.5,596.833 383.5,575.5 Z"/></g>
<g><path style="opacity:1" fill="#0063c6" d="M 511.5,575.5 C 554.167,575.5 596.833,575.5 639.5,575.5C 639.5,596.833 639.5,618.167 639.5,639.5C 618.167,639.5 596.833,639.5 575.5,639.5C 554.167,639.5 532.833,639.5 511.5,639.5C 511.5,618.167 511.5,596.833 511.5,575.5 Z"/></g>
<g><path style="opacity:1" fill="#0063c6" d="M 767.5,575.5 C 788.833,575.5 810.167,575.5 831.5,575.5C 831.5,596.833 831.5,618.167 831.5,639.5C 810.167,639.5 788.833,639.5 767.5,639.5C 767.5,618.167 767.5,596.833 767.5,575.5 Z"/></g>
<g><path style="opacity:1" fill="#fef59a" d="M 831.5,575.5 C 852.833,575.5 874.167,575.5 895.5,575.5C 895.5,596.833 895.5,618.167 895.5,639.5C 874.167,639.5 852.833,639.5 831.5,639.5C 831.5,618.167 831.5,596.833 831.5,575.5 Z"/></g>
<g><path style="opacity:1" fill="#4b5f71" d="M 959.5,575.5 C 980.833,575.5 1002.17,575.5 1023.5,575.5C 1023.5,596.833 1023.5,618.167 1023.5,639.5C 1002.17,639.5 980.833,639.5 959.5,639.5C 959.5,618.167 959.5,596.833 959.5,575.5 Z"/></g>
<g><path style="opacity:1" fill="#4b5f71" d="M 191.5,639.5 C 191.5,660.833 191.5,682.167 191.5,703.5C 170.167,703.5 148.833,703.5 127.5,703.5C 127.5,682.167 127.5,660.833 127.5,639.5C 148.833,639.5 170.167,639.5 191.5,639.5 Z"/></g>
<g><path style="opacity:1" fill="#99a0af" d="M 191.5,639.5 C 212.833,639.5 234.167,639.5 255.5,639.5C 255.5,660.833 255.5,682.167 255.5,703.5C 234.167,703.5 212.833,703.5 191.5,703.5C 191.5,682.167 191.5,660.833 191.5,639.5 Z"/></g>
<g><path style="opacity:1" fill="#f0f2f1" d="M 255.5,639.5 C 276.833,639.5 298.167,639.5 319.5,639.5C 319.5,660.833 319.5,682.167 319.5,703.5C 298.167,703.5 276.833,703.5 255.5,703.5C 255.5,682.167 255.5,660.833 255.5,639.5 Z"/></g>
<g><path style="opacity:1" fill="#99a0af" d="M 319.5,639.5 C 340.833,639.5 362.167,639.5 383.5,639.5C 383.5,660.833 383.5,682.167 383.5,703.5C 362.167,703.5 340.833,703.5 319.5,703.5C 319.5,682.167 319.5,660.833 319.5,639.5 Z"/></g>
<g><path style="opacity:1" fill="#4b5f71" d="M 383.5,639.5 C 404.833,639.5 426.167,639.5 447.5,639.5C 447.5,660.833 447.5,682.167 447.5,703.5C 426.167,703.5 404.833,703.5 383.5,703.5C 383.5,682.167 383.5,660.833 383.5,639.5 Z"/></g>
<g><path style="opacity:1" fill="#5c350c" d="M 447.5,639.5 C 468.833,639.5 490.167,639.5 511.5,639.5C 511.5,660.833 511.5,682.167 511.5,703.5C 490.167,703.5 468.833,703.5 447.5,703.5C 447.5,682.167 447.5,660.833 447.5,639.5 Z"/></g>
<g><path style="opacity:1" fill="#f89832" d="M 511.5,639.5 C 532.833,639.5 554.167,639.5 575.5,639.5C 575.5,660.833 575.5,682.167 575.5,703.5C 554.167,703.5 532.833,703.5 511.5,703.5C 511.5,682.167 511.5,660.833 511.5,639.5 Z"/></g>
<g><path style="opacity:1" fill="#f89832" d="M 767.5,639.5 C 788.833,639.5 810.167,639.5 831.5,639.5C 831.5,660.833 831.5,682.167 831.5,703.5C 810.167,703.5 788.833,703.5 767.5,703.5C 767.5,682.167 767.5,660.833 767.5,639.5 Z"/></g>
<g><path style="opacity:1" fill="#000000" d="M 831.5,639.5 C 852.833,639.5 874.167,639.5 895.5,639.5C 895.5,660.833 895.5,682.167 895.5,703.5C 874.167,703.5 852.833,703.5 831.5,703.5C 831.5,682.167 831.5,660.833 831.5,639.5 Z"/></g>
<g><path style="opacity:1" fill="#99a0af" d="M 895.5,639.5 C 916.833,639.5 938.167,639.5 959.5,639.5C 959.5,660.833 959.5,682.167 959.5,703.5C 959.5,724.833 959.5,746.167 959.5,767.5C 938.167,767.5 916.833,767.5 895.5,767.5C 895.5,746.167 895.5,724.833 895.5,703.5C 895.5,682.167 895.5,660.833 895.5,639.5 Z"/></g>
<g><path style="opacity:1" fill="#f0f2f1" d="M 959.5,639.5 C 980.833,639.5 1002.17,639.5 1023.5,639.5C 1023.5,660.833 1023.5,682.167 1023.5,703.5C 1002.17,703.5 980.833,703.5 959.5,703.5C 959.5,682.167 959.5,660.833 959.5,639.5 Z"/></g>
<g><path style="opacity:1" fill="#4b5f71" d="M 1023.5,639.5 C 1044.83,639.5 1066.17,639.5 1087.5,639.5C 1087.5,660.833 1087.5,682.167 1087.5,703.5C 1066.17,703.5 1044.83,703.5 1023.5,703.5C 1023.5,682.167 1023.5,660.833 1023.5,639.5 Z"/></g>
<g><path style="opacity:1" fill="#000000" d="M 127.5,703.5 C 127.5,724.833 127.5,746.167 127.5,767.5C 148.833,767.5 170.167,767.5 191.5,767.5C 212.833,767.5 234.167,767.5 255.5,767.5C 298.167,767.5 340.833,767.5 383.5,767.5C 404.833,767.5 426.167,767.5 447.5,767.5C 447.5,788.833 447.5,810.167 447.5,831.5C 426.167,831.5 404.833,831.5 383.5,831.5C 276.833,831.5 170.167,831.5 63.5,831.5C 63.5,895.5 63.5,959.5 63.5,1023.5C 63.5,1087.5 63.5,1151.5 63.5,1215.5C 42.1667,1215.5 20.8333,1215.5 -0.5,1215.5C -0.5,1066.17 -0.5,916.833 -0.5,767.5C 20.8333,767.5 42.1667,767.5 63.5,767.5C 63.5,746.167 63.5,724.833 63.5,703.5C 84.8333,703.5 106.167,703.5 127.5,703.5 Z"/></g>
<g><path style="opacity:1" fill="#99a0af" d="M 127.5,703.5 C 148.833,703.5 170.167,703.5 191.5,703.5C 191.5,724.833 191.5,746.167 191.5,767.5C 170.167,767.5 148.833,767.5 127.5,767.5C 127.5,746.167 127.5,724.833 127.5,703.5 Z"/></g>
<g><path style="opacity:1" fill="#f0f2f1" d="M 191.5,703.5 C 212.833,703.5 234.167,703.5 255.5,703.5C 255.5,724.833 255.5,746.167 255.5,767.5C 234.167,767.5 212.833,767.5 191.5,767.5C 191.5,746.167 191.5,724.833 191.5,703.5 Z"/></g>
<g><path style="opacity:1" fill="#cbcccc" d="M 255.5,703.5 C 276.833,703.5 298.167,703.5 319.5,703.5C 340.833,703.5 362.167,703.5 383.5,703.5C 383.5,724.833 383.5,746.167 383.5,767.5C 340.833,767.5 298.167,767.5 255.5,767.5C 255.5,746.167 255.5,724.833 255.5,703.5 Z"/></g>
<g><path style="opacity:1" fill="#99a0af" d="M 383.5,703.5 C 404.833,703.5 426.167,703.5 447.5,703.5C 447.5,724.833 447.5,746.167 447.5,767.5C 426.167,767.5 404.833,767.5 383.5,767.5C 383.5,746.167 383.5,724.833 383.5,703.5 Z"/></g>
<g><path style="opacity:1" fill="#4b5f71" d="M 447.5,703.5 C 468.833,703.5 490.167,703.5 511.5,703.5C 511.5,724.833 511.5,746.167 511.5,767.5C 490.167,767.5 468.833,767.5 447.5,767.5C 447.5,746.167 447.5,724.833 447.5,703.5 Z"/></g>
<g><path style="opacity:1" fill="#5c350c" d="M 511.5,703.5 C 532.833,703.5 554.167,703.5 575.5,703.5C 618.167,703.5 660.833,703.5 703.5,703.5C 703.5,724.833 703.5,746.167 703.5,767.5C 660.833,767.5 618.167,767.5 575.5,767.5C 554.167,767.5 532.833,767.5 511.5,767.5C 511.5,746.167 511.5,724.833 511.5,703.5 Z"/></g>
<g><path style="opacity:1" fill="#000000" d="M 703.5,703.5 C 724.833,703.5 746.167,703.5 767.5,703.5C 788.833,703.5 810.167,703.5 831.5,703.5C 831.5,724.833 831.5,746.167 831.5,767.5C 810.167,767.5 788.833,767.5 767.5,767.5C 746.167,767.5 724.833,767.5 703.5,767.5C 703.5,746.167 703.5,724.833 703.5,703.5 Z"/></g>
<g><path style="opacity:1" fill="#28323d" d="M 831.5,703.5 C 852.833,703.5 874.167,703.5 895.5,703.5C 895.5,724.833 895.5,746.167 895.5,767.5C 874.167,767.5 852.833,767.5 831.5,767.5C 831.5,746.167 831.5,724.833 831.5,703.5 Z"/></g>
<g><path style="opacity:1" fill="#cbcccc" d="M 959.5,703.5 C 980.833,703.5 1002.17,703.5 1023.5,703.5C 1023.5,724.833 1023.5,746.167 1023.5,767.5C 1002.17,767.5 980.833,767.5 959.5,767.5C 959.5,746.167 959.5,724.833 959.5,703.5 Z"/></g>
<g><path style="opacity:1" fill="#f0f2f1" d="M 1023.5,703.5 C 1044.83,703.5 1066.17,703.5 1087.5,703.5C 1087.5,724.833 1087.5,746.167 1087.5,767.5C 1066.17,767.5 1044.83,767.5 1023.5,767.5C 1023.5,746.167 1023.5,724.833 1023.5,703.5 Z"/></g>
<g><path style="opacity:1" fill="#000000" d="M 1087.5,703.5 C 1108.83,703.5 1130.17,703.5 1151.5,703.5C 1151.5,724.833 1151.5,746.167 1151.5,767.5C 1130.17,767.5 1108.83,767.5 1087.5,767.5C 1087.5,746.167 1087.5,724.833 1087.5,703.5 Z"/></g>
<g><path style="opacity:1" fill="#28323d" d="M 447.5,767.5 C 468.833,767.5 490.167,767.5 511.5,767.5C 511.5,788.833 511.5,810.167 511.5,831.5C 490.167,831.5 468.833,831.5 447.5,831.5C 447.5,810.167 447.5,788.833 447.5,767.5 Z"/></g>
<g><path style="opacity:1" fill="#99a0af" d="M 511.5,767.5 C 532.833,767.5 554.167,767.5 575.5,767.5C 575.5,788.833 575.5,810.167 575.5,831.5C 554.167,831.5 532.833,831.5 511.5,831.5C 511.5,810.167 511.5,788.833 511.5,767.5 Z"/></g>
<g><path style="opacity:1" fill="#cbcccc" d="M 575.5,767.5 C 618.167,767.5 660.833,767.5 703.5,767.5C 724.833,767.5 746.167,767.5 767.5,767.5C 767.5,788.833 767.5,810.167 767.5,831.5C 703.5,831.5 639.5,831.5 575.5,831.5C 575.5,810.167 575.5,788.833 575.5,767.5 Z"/></g>
<g><path style="opacity:1" fill="#99a0af" d="M 767.5,767.5 C 788.833,767.5 810.167,767.5 831.5,767.5C 831.5,788.833 831.5,810.167 831.5,831.5C 810.167,831.5 788.833,831.5 767.5,831.5C 767.5,810.167 767.5,788.833 767.5,767.5 Z"/></g>
<g><path style="opacity:1" fill="#4b5f71" d="M 831.5,767.5 C 852.833,767.5 874.167,767.5 895.5,767.5C 895.5,788.833 895.5,810.167 895.5,831.5C 874.167,831.5 852.833,831.5 831.5,831.5C 831.5,810.167 831.5,788.833 831.5,767.5 Z"/></g>
<g><path style="opacity:1" fill="#28323d" d="M 895.5,767.5 C 916.833,767.5 938.167,767.5 959.5,767.5C 980.833,767.5 1002.17,767.5 1023.5,767.5C 1023.5,788.833 1023.5,810.167 1023.5,831.5C 1002.17,831.5 980.833,831.5 959.5,831.5C 938.167,831.5 916.833,831.5 895.5,831.5C 895.5,810.167 895.5,788.833 895.5,767.5 Z"/></g>
<g><path style="opacity:1" fill="#000000" d="M 1023.5,767.5 C 1044.83,767.5 1066.17,767.5 1087.5,767.5C 1087.5,788.833 1087.5,810.167 1087.5,831.5C 1066.17,831.5 1044.83,831.5 1023.5,831.5C 1023.5,810.167 1023.5,788.833 1023.5,767.5 Z"/></g>
<g><path style="opacity:1" fill="#fef59a" d="M 383.5,831.5 C 383.5,895.5 383.5,959.5 383.5,1023.5C 362.167,1023.5 340.833,1023.5 319.5,1023.5C 319.5,1002.17 319.5,980.833 319.5,959.5C 319.5,938.167 319.5,916.833 319.5,895.5C 255.5,895.5 191.5,895.5 127.5,895.5C 127.5,916.833 127.5,938.167 127.5,959.5C 127.5,980.833 127.5,1002.17 127.5,1023.5C 106.167,1023.5 84.8333,1023.5 63.5,1023.5C 63.5,959.5 63.5,895.5 63.5,831.5C 170.167,831.5 276.833,831.5 383.5,831.5 Z"/></g>
<g><path style="opacity:1" fill="#5c350c" d="M 383.5,831.5 C 404.833,831.5 426.167,831.5 447.5,831.5C 447.5,895.5 447.5,959.5 447.5,1023.5C 447.5,1044.83 447.5,1066.17 447.5,1087.5C 447.5,1108.83 447.5,1130.17 447.5,1151.5C 426.167,1151.5 404.833,1151.5 383.5,1151.5C 383.5,1108.83 383.5,1066.17 383.5,1023.5C 383.5,959.5 383.5,895.5 383.5,831.5 Z"/></g>
<g><path style="opacity:1" fill="#0c3470" d="M 447.5,831.5 C 468.833,831.5 490.167,831.5 511.5,831.5C 511.5,852.833 511.5,874.167 511.5,895.5C 511.5,916.833 511.5,938.167 511.5,959.5C 511.5,980.833 511.5,1002.17 511.5,1023.5C 490.167,1023.5 468.833,1023.5 447.5,1023.5C 447.5,959.5 447.5,895.5 447.5,831.5 Z"/></g>
<g><path style="opacity:1" fill="#4b5f71" d="M 511.5,831.5 C 532.833,831.5 554.167,831.5 575.5,831.5C 639.5,831.5 703.5,831.5 767.5,831.5C 788.833,831.5 810.167,831.5 831.5,831.5C 831.5,852.833 831.5,874.167 831.5,895.5C 810.167,895.5 788.833,895.5 767.5,895.5C 703.5,895.5 639.5,895.5 575.5,895.5C 554.167,895.5 532.833,895.5 511.5,895.5C 511.5,874.167 511.5,852.833 511.5,831.5 Z"/></g>
<g><path style="opacity:1" fill="#28323d" d="M 831.5,831.5 C 852.833,831.5 874.167,831.5 895.5,831.5C 895.5,852.833 895.5,874.167 895.5,895.5C 874.167,895.5 852.833,895.5 831.5,895.5C 831.5,874.167 831.5,852.833 831.5,831.5 Z"/></g>
<g><path style="opacity:1" fill="#4b5f71" d="M 895.5,831.5 C 916.833,831.5 938.167,831.5 959.5,831.5C 959.5,852.833 959.5,874.167 959.5,895.5C 980.833,895.5 1002.17,895.5 1023.5,895.5C 1023.5,916.833 1023.5,938.167 1023.5,959.5C 1002.17,959.5 980.833,959.5 959.5,959.5C 938.167,959.5 916.833,959.5 895.5,959.5C 895.5,938.167 895.5,916.833 895.5,895.5C 895.5,874.167 895.5,852.833 895.5,831.5 Z"/></g>
<g><path style="opacity:1" fill="#000000" d="M 959.5,831.5 C 980.833,831.5 1002.17,831.5 1023.5,831.5C 1023.5,852.833 1023.5,874.167 1023.5,895.5C 1002.17,895.5 980.833,895.5 959.5,895.5C 959.5,874.167 959.5,852.833 959.5,831.5 Z"/></g>
<g><path style="opacity:1" fill="#0c3470" d="M 319.5,959.5 C 298.167,959.5 276.833,959.5 255.5,959.5C 234.167,959.5 212.833,959.5 191.5,959.5C 170.167,959.5 148.833,959.5 127.5,959.5C 127.5,938.167 127.5,916.833 127.5,895.5C 191.5,895.5 255.5,895.5 319.5,895.5C 319.5,916.833 319.5,938.167 319.5,959.5 Z"/></g>
<g><path style="opacity:1" fill="#cbcccc" d="M 511.5,895.5 C 532.833,895.5 554.167,895.5 575.5,895.5C 575.5,916.833 575.5,938.167 575.5,959.5C 554.167,959.5 532.833,959.5 511.5,959.5C 511.5,938.167 511.5,916.833 511.5,895.5 Z"/></g>
<g><path style="opacity:1" fill="#f0f2f1" d="M 575.5,895.5 C 639.5,895.5 703.5,895.5 767.5,895.5C 767.5,916.833 767.5,938.167 767.5,959.5C 703.5,959.5 639.5,959.5 575.5,959.5C 575.5,938.167 575.5,916.833 575.5,895.5 Z"/></g>
<g><path style="opacity:1" fill="#cbcccc" d="M 767.5,895.5 C 788.833,895.5 810.167,895.5 831.5,895.5C 831.5,916.833 831.5,938.167 831.5,959.5C 810.167,959.5 788.833,959.5 767.5,959.5C 767.5,938.167 767.5,916.833 767.5,895.5 Z"/></g>
<g><path style="opacity:1" fill="#000000" d="M 831.5,895.5 C 852.833,895.5 874.167,895.5 895.5,895.5C 895.5,916.833 895.5,938.167 895.5,959.5C 874.167,959.5 852.833,959.5 831.5,959.5C 831.5,938.167 831.5,916.833 831.5,895.5 Z"/></g>
<g><path style="opacity:1" fill="#000000" d="M 1023.5,895.5 C 1044.83,895.5 1066.17,895.5 1087.5,895.5C 1087.5,916.833 1087.5,938.167 1087.5,959.5C 1066.17,959.5 1044.83,959.5 1023.5,959.5C 1023.5,938.167 1023.5,916.833 1023.5,895.5 Z"/></g>
<g><path style="opacity:1" fill="#0063c6" d="M 127.5,959.5 C 148.833,959.5 170.167,959.5 191.5,959.5C 191.5,1044.83 191.5,1130.17 191.5,1215.5C 170.167,1215.5 148.833,1215.5 127.5,1215.5C 127.5,1151.5 127.5,1087.5 127.5,1023.5C 127.5,1002.17 127.5,980.833 127.5,959.5 Z"/></g>
<g><path style="opacity:1" fill="#4195e9" d="M 191.5,959.5 C 212.833,959.5 234.167,959.5 255.5,959.5C 255.5,1044.83 255.5,1130.17 255.5,1215.5C 234.167,1215.5 212.833,1215.5 191.5,1215.5C 191.5,1130.17 191.5,1044.83 191.5,959.5 Z"/></g>
<g><path style="opacity:1" fill="#0063c6" d="M 255.5,959.5 C 276.833,959.5 298.167,959.5 319.5,959.5C 319.5,980.833 319.5,1002.17 319.5,1023.5C 319.5,1087.5 319.5,1151.5 319.5,1215.5C 298.167,1215.5 276.833,1215.5 255.5,1215.5C 255.5,1130.17 255.5,1044.83 255.5,959.5 Z"/></g>
<g><path style="opacity:1" fill="#99a0af" d="M 511.5,959.5 C 532.833,959.5 554.167,959.5 575.5,959.5C 575.5,980.833 575.5,1002.17 575.5,1023.5C 554.167,1023.5 532.833,1023.5 511.5,1023.5C 511.5,1002.17 511.5,980.833 511.5,959.5 Z"/></g>
<g><path style="opacity:1" fill="#cbcccc" d="M 575.5,959.5 C 639.5,959.5 703.5,959.5 767.5,959.5C 767.5,980.833 767.5,1002.17 767.5,1023.5C 703.5,1023.5 639.5,1023.5 575.5,1023.5C 575.5,1002.17 575.5,980.833 575.5,959.5 Z"/></g>
<g><path style="opacity:1" fill="#99a0af" d="M 767.5,959.5 C 788.833,959.5 810.167,959.5 831.5,959.5C 831.5,980.833 831.5,1002.17 831.5,1023.5C 810.167,1023.5 788.833,1023.5 767.5,1023.5C 767.5,1002.17 767.5,980.833 767.5,959.5 Z"/></g>
<g><path style="opacity:1" fill="#28323d" d="M 831.5,959.5 C 852.833,959.5 874.167,959.5 895.5,959.5C 895.5,980.833 895.5,1002.17 895.5,1023.5C 895.5,1044.83 895.5,1066.17 895.5,1087.5C 874.167,1087.5 852.833,1087.5 831.5,1087.5C 810.167,1087.5 788.833,1087.5 767.5,1087.5C 767.5,1066.17 767.5,1044.83 767.5,1023.5C 788.833,1023.5 810.167,1023.5 831.5,1023.5C 831.5,1002.17 831.5,980.833 831.5,959.5 Z"/></g>
<g><path style="opacity:1" fill="#99a0af" d="M 895.5,959.5 C 916.833,959.5 938.167,959.5 959.5,959.5C 959.5,980.833 959.5,1002.17 959.5,1023.5C 938.167,1023.5 916.833,1023.5 895.5,1023.5C 895.5,1002.17 895.5,980.833 895.5,959.5 Z"/></g>
<g><path style="opacity:1" fill="#f0f2f1" d="M 959.5,959.5 C 980.833,959.5 1002.17,959.5 1023.5,959.5C 1023.5,980.833 1023.5,1002.17 1023.5,1023.5C 1002.17,1023.5 980.833,1023.5 959.5,1023.5C 959.5,1002.17 959.5,980.833 959.5,959.5 Z"/></g>
<g><path style="opacity:1" fill="#cbcccc" d="M 1023.5,959.5 C 1044.83,959.5 1066.17,959.5 1087.5,959.5C 1087.5,980.833 1087.5,1002.17 1087.5,1023.5C 1066.17,1023.5 1044.83,1023.5 1023.5,1023.5C 1023.5,1002.17 1023.5,980.833 1023.5,959.5 Z"/></g>
<g><path style="opacity:1" fill="#b65a00" d="M 1087.5,959.5 C 1151.5,959.5 1215.5,959.5 1279.5,959.5C 1279.5,980.833 1279.5,1002.17 1279.5,1023.5C 1258.17,1023.5 1236.83,1023.5 1215.5,1023.5C 1172.83,1023.5 1130.17,1023.5 1087.5,1023.5C 1087.5,1002.17 1087.5,980.833 1087.5,959.5 Z"/></g>
<g><path style="opacity:1" fill="#fecc64" d="M 63.5,1023.5 C 84.8333,1023.5 106.167,1023.5 127.5,1023.5C 127.5,1087.5 127.5,1151.5 127.5,1215.5C 106.167,1215.5 84.8333,1215.5 63.5,1215.5C 63.5,1151.5 63.5,1087.5 63.5,1023.5 Z"/></g>
<g><path style="opacity:1" fill="#fecc64" d="M 319.5,1023.5 C 340.833,1023.5 362.167,1023.5 383.5,1023.5C 383.5,1066.17 383.5,1108.83 383.5,1151.5C 383.5,1172.83 383.5,1194.17 383.5,1215.5C 362.167,1215.5 340.833,1215.5 319.5,1215.5C 319.5,1151.5 319.5,1087.5 319.5,1023.5 Z"/></g>
<g><path style="opacity:1" fill="#000000" d="M 447.5,1023.5 C 468.833,1023.5 490.167,1023.5 511.5,1023.5C 532.833,1023.5 554.167,1023.5 575.5,1023.5C 575.5,1044.83 575.5,1066.17 575.5,1087.5C 554.167,1087.5 532.833,1087.5 511.5,1087.5C 490.167,1087.5 468.833,1087.5 447.5,1087.5C 447.5,1066.17 447.5,1044.83 447.5,1023.5 Z"/></g>
<g><path style="opacity:1" fill="#4b5f71" d="M 575.5,1023.5 C 639.5,1023.5 703.5,1023.5 767.5,1023.5C 767.5,1044.83 767.5,1066.17 767.5,1087.5C 703.5,1087.5 639.5,1087.5 575.5,1087.5C 575.5,1066.17 575.5,1044.83 575.5,1023.5 Z"/></g>
<g><path style="opacity:1" fill="#4b5f71" d="M 895.5,1023.5 C 916.833,1023.5 938.167,1023.5 959.5,1023.5C 959.5,1044.83 959.5,1066.17 959.5,1087.5C 938.167,1087.5 916.833,1087.5 895.5,1087.5C 895.5,1066.17 895.5,1044.83 895.5,1023.5 Z"/></g>
<g><path style="opacity:1" fill="#cbcccc" d="M 959.5,1023.5 C 980.833,1023.5 1002.17,1023.5 1023.5,1023.5C 1023.5,1044.83 1023.5,1066.17 1023.5,1087.5C 1002.17,1087.5 980.833,1087.5 959.5,1087.5C 959.5,1066.17 959.5,1044.83 959.5,1023.5 Z"/></g>
<g><path style="opacity:1" fill="#b65a00" d="M 1023.5,1023.5 C 1044.83,1023.5 1066.17,1023.5 1087.5,1023.5C 1087.5,1044.83 1087.5,1066.17 1087.5,1087.5C 1066.17,1087.5 1044.83,1087.5 1023.5,1087.5C 1023.5,1066.17 1023.5,1044.83 1023.5,1023.5 Z"/></g>
<g><path style="opacity:1" fill="#fef59a" d="M 1087.5,1023.5 C 1130.17,1023.5 1172.83,1023.5 1215.5,1023.5C 1215.5,1044.83 1215.5,1066.17 1215.5,1087.5C 1194.17,1087.5 1172.83,1087.5 1151.5,1087.5C 1130.17,1087.5 1108.83,1087.5 1087.5,1087.5C 1087.5,1066.17 1087.5,1044.83 1087.5,1023.5 Z"/></g>
<g><path style="opacity:1" fill="#5c350c" d="M 1215.5,1023.5 C 1236.83,1023.5 1258.17,1023.5 1279.5,1023.5C 1279.5,1044.83 1279.5,1066.17 1279.5,1087.5C 1258.17,1087.5 1236.83,1087.5 1215.5,1087.5C 1215.5,1066.17 1215.5,1044.83 1215.5,1023.5 Z"/></g>
<g><path style="opacity:1" fill="#0c3470" d="M 447.5,1087.5 C 468.833,1087.5 490.167,1087.5 511.5,1087.5C 511.5,1130.17 511.5,1172.83 511.5,1215.5C 490.167,1215.5 468.833,1215.5 447.5,1215.5C 447.5,1194.17 447.5,1172.83 447.5,1151.5C 447.5,1130.17 447.5,1108.83 447.5,1087.5 Z"/></g>
<g><path style="opacity:1" fill="#0063c6" d="M 511.5,1087.5 C 532.833,1087.5 554.167,1087.5 575.5,1087.5C 639.5,1087.5 703.5,1087.5 767.5,1087.5C 788.833,1087.5 810.167,1087.5 831.5,1087.5C 831.5,1108.83 831.5,1130.17 831.5,1151.5C 831.5,1172.83 831.5,1194.17 831.5,1215.5C 810.167,1215.5 788.833,1215.5 767.5,1215.5C 746.167,1215.5 724.833,1215.5 703.5,1215.5C 639.5,1215.5 575.5,1215.5 511.5,1215.5C 511.5,1172.83 511.5,1130.17 511.5,1087.5 Z"/></g>
<g><path style="opacity:1" fill="#0c3470" d="M 831.5,1087.5 C 852.833,1087.5 874.167,1087.5 895.5,1087.5C 895.5,1108.83 895.5,1130.17 895.5,1151.5C 874.167,1151.5 852.833,1151.5 831.5,1151.5C 831.5,1130.17 831.5,1108.83 831.5,1087.5 Z"/></g>
<g><path style="opacity:1" fill="#000000" d="M 895.5,1087.5 C 916.833,1087.5 938.167,1087.5 959.5,1087.5C 959.5,1130.17 959.5,1172.83 959.5,1215.5C 980.833,1215.5 1002.17,1215.5 1023.5,1215.5C 1044.83,1215.5 1066.17,1215.5 1087.5,1215.5C 1108.83,1215.5 1130.17,1215.5 1151.5,1215.5C 1151.5,1236.83 1151.5,1258.17 1151.5,1279.5C 1087.5,1279.5 1023.5,1279.5 959.5,1279.5C 959.5,1300.83 959.5,1322.17 959.5,1343.5C 938.167,1343.5 916.833,1343.5 895.5,1343.5C 895.5,1322.17 895.5,1300.83 895.5,1279.5C 895.5,1258.17 895.5,1236.83 895.5,1215.5C 895.5,1194.17 895.5,1172.83 895.5,1151.5C 895.5,1130.17 895.5,1108.83 895.5,1087.5 Z"/></g>
<g><path style="opacity:1" fill="#b65a00" d="M 959.5,1087.5 C 980.833,1087.5 1002.17,1087.5 1023.5,1087.5C 1023.5,1108.83 1023.5,1130.17 1023.5,1151.5C 1023.5,1172.83 1023.5,1194.17 1023.5,1215.5C 1002.17,1215.5 980.833,1215.5 959.5,1215.5C 959.5,1172.83 959.5,1130.17 959.5,1087.5 Z"/></g>
<g><path style="opacity:1" fill="#fef59a" d="M 1023.5,1087.5 C 1044.83,1087.5 1066.17,1087.5 1087.5,1087.5C 1087.5,1108.83 1087.5,1130.17 1087.5,1151.5C 1066.17,1151.5 1044.83,1151.5 1023.5,1151.5C 1023.5,1130.17 1023.5,1108.83 1023.5,1087.5 Z"/></g>
<g><path style="opacity:1" fill="#99a0af" d="M 1087.5,1087.5 C 1108.83,1087.5 1130.17,1087.5 1151.5,1087.5C 1151.5,1108.83 1151.5,1130.17 1151.5,1151.5C 1130.17,1151.5 1108.83,1151.5 1087.5,1151.5C 1087.5,1130.17 1087.5,1108.83 1087.5,1087.5 Z"/></g>
<g><path style="opacity:1" fill="#4b5f71" d="M 1151.5,1087.5 C 1172.83,1087.5 1194.17,1087.5 1215.5,1087.5C 1215.5,1108.83 1215.5,1130.17 1215.5,1151.5C 1194.17,1151.5 1172.83,1151.5 1151.5,1151.5C 1151.5,1130.17 1151.5,1108.83 1151.5,1087.5 Z"/></g>
<g><path style="opacity:1" fill="#000000" d="M 1215.5,1087.5 C 1236.83,1087.5 1258.17,1087.5 1279.5,1087.5C 1279.5,1108.83 1279.5,1130.17 1279.5,1151.5C 1258.17,1151.5 1236.83,1151.5 1215.5,1151.5C 1215.5,1130.17 1215.5,1108.83 1215.5,1087.5 Z"/></g>
<g><path style="opacity:1" fill="#28323d" d="M 383.5,1151.5 C 404.833,1151.5 426.167,1151.5 447.5,1151.5C 447.5,1172.83 447.5,1194.17 447.5,1215.5C 426.167,1215.5 404.833,1215.5 383.5,1215.5C 383.5,1194.17 383.5,1172.83 383.5,1151.5 Z"/></g>
<g><path style="opacity:1" fill="#4b5f71" d="M 831.5,1151.5 C 852.833,1151.5 874.167,1151.5 895.5,1151.5C 895.5,1172.83 895.5,1194.17 895.5,1215.5C 874.167,1215.5 852.833,1215.5 831.5,1215.5C 831.5,1194.17 831.5,1172.83 831.5,1151.5 Z"/></g>
<g><path style="opacity:1" fill="#fecc64" d="M 1023.5,1151.5 C 1044.83,1151.5 1066.17,1151.5 1087.5,1151.5C 1087.5,1172.83 1087.5,1194.17 1087.5,1215.5C 1066.17,1215.5 1044.83,1215.5 1023.5,1215.5C 1023.5,1194.17 1023.5,1172.83 1023.5,1151.5 Z"/></g>
<g><path style="opacity:1" fill="#4b5f71" d="M 1087.5,1151.5 C 1108.83,1151.5 1130.17,1151.5 1151.5,1151.5C 1151.5,1172.83 1151.5,1194.17 1151.5,1215.5C 1130.17,1215.5 1108.83,1215.5 1087.5,1215.5C 1087.5,1194.17 1087.5,1172.83 1087.5,1151.5 Z"/></g>
<g><path style="opacity:1" fill="#99a0af" d="M 1151.5,1151.5 C 1172.83,1151.5 1194.17,1151.5 1215.5,1151.5C 1215.5,1172.83 1215.5,1194.17 1215.5,1215.5C 1194.17,1215.5 1172.83,1215.5 1151.5,1215.5C 1151.5,1194.17 1151.5,1172.83 1151.5,1151.5 Z"/></g>
<g><path style="opacity:1" fill="#f0f2f1" d="M 1215.5,1151.5 C 1236.83,1151.5 1258.17,1151.5 1279.5,1151.5C 1279.5,1172.83 1279.5,1194.17 1279.5,1215.5C 1258.17,1215.5 1236.83,1215.5 1215.5,1215.5C 1215.5,1194.17 1215.5,1172.83 1215.5,1151.5 Z"/></g>
<g><path style="opacity:1" fill="#4b5f71" d="M 1279.5,1151.5 C 1300.83,1151.5 1322.17,1151.5 1343.5,1151.5C 1343.5,1172.83 1343.5,1194.17 1343.5,1215.5C 1322.17,1215.5 1300.83,1215.5 1279.5,1215.5C 1279.5,1194.17 1279.5,1172.83 1279.5,1151.5 Z"/></g>
<g><path style="opacity:1" fill="#000000" d="M 63.5,1215.5 C 84.8333,1215.5 106.167,1215.5 127.5,1215.5C 127.5,1236.83 127.5,1258.17 127.5,1279.5C 106.167,1279.5 84.8333,1279.5 63.5,1279.5C 63.5,1258.17 63.5,1236.83 63.5,1215.5 Z"/></g>
<g><path style="opacity:1" fill="#fecc64" d="M 127.5,1215.5 C 148.833,1215.5 170.167,1215.5 191.5,1215.5C 191.5,1236.83 191.5,1258.17 191.5,1279.5C 170.167,1279.5 148.833,1279.5 127.5,1279.5C 127.5,1258.17 127.5,1236.83 127.5,1215.5 Z"/></g>
<g><path style="opacity:1" fill="#0063c6" d="M 191.5,1215.5 C 212.833,1215.5 234.167,1215.5 255.5,1215.5C 255.5,1236.83 255.5,1258.17 255.5,1279.5C 234.167,1279.5 212.833,1279.5 191.5,1279.5C 191.5,1258.17 191.5,1236.83 191.5,1215.5 Z"/></g>
<g><path style="opacity:1" fill="#fecc64" d="M 255.5,1215.5 C 276.833,1215.5 298.167,1215.5 319.5,1215.5C 319.5,1236.83 319.5,1258.17 319.5,1279.5C 298.167,1279.5 276.833,1279.5 255.5,1279.5C 255.5,1258.17 255.5,1236.83 255.5,1215.5 Z"/></g>
<g><path style="opacity:1" fill="#5c350c" d="M 319.5,1215.5 C 340.833,1215.5 362.167,1215.5 383.5,1215.5C 383.5,1236.83 383.5,1258.17 383.5,1279.5C 362.167,1279.5 340.833,1279.5 319.5,1279.5C 319.5,1258.17 319.5,1236.83 319.5,1215.5 Z"/></g>
<g><path style="opacity:1" fill="#cbcccc" d="M 383.5,1215.5 C 404.833,1215.5 426.167,1215.5 447.5,1215.5C 447.5,1236.83 447.5,1258.17 447.5,1279.5C 426.167,1279.5 404.833,1279.5 383.5,1279.5C 383.5,1258.17 383.5,1236.83 383.5,1215.5 Z"/></g>
<g><path style="opacity:1" fill="#28323d" d="M 447.5,1215.5 C 468.833,1215.5 490.167,1215.5 511.5,1215.5C 511.5,1236.83 511.5,1258.17 511.5,1279.5C 511.5,1300.83 511.5,1322.17 511.5,1343.5C 490.167,1343.5 468.833,1343.5 447.5,1343.5C 447.5,1322.17 447.5,1300.83 447.5,1279.5C 447.5,1258.17 447.5,1236.83 447.5,1215.5 Z"/></g>
<g><path style="opacity:1" fill="#0c3470" d="M 511.5,1215.5 C 575.5,1215.5 639.5,1215.5 703.5,1215.5C 703.5,1236.83 703.5,1258.17 703.5,1279.5C 639.5,1279.5 575.5,1279.5 511.5,1279.5C 511.5,1258.17 511.5,1236.83 511.5,1215.5 Z"/></g>
<g><path style="opacity:1" fill="#28323d" d="M 703.5,1215.5 C 724.833,1215.5 746.167,1215.5 767.5,1215.5C 767.5,1236.83 767.5,1258.17 767.5,1279.5C 746.167,1279.5 724.833,1279.5 703.5,1279.5C 703.5,1258.17 703.5,1236.83 703.5,1215.5 Z"/></g>
<g><path style="opacity:1" fill="#cbcccc" d="M 767.5,1215.5 C 788.833,1215.5 810.167,1215.5 831.5,1215.5C 831.5,1236.83 831.5,1258.17 831.5,1279.5C 810.167,1279.5 788.833,1279.5 767.5,1279.5C 767.5,1258.17 767.5,1236.83 767.5,1215.5 Z"/></g>
<g><path style="opacity:1" fill="#f0f2f1" d="M 831.5,1215.5 C 852.833,1215.5 874.167,1215.5 895.5,1215.5C 895.5,1236.83 895.5,1258.17 895.5,1279.5C 874.167,1279.5 852.833,1279.5 831.5,1279.5C 831.5,1258.17 831.5,1236.83 831.5,1215.5 Z"/></g>
<g><path style="opacity:1" fill="#cbcccc" d="M 1151.5,1215.5 C 1172.83,1215.5 1194.17,1215.5 1215.5,1215.5C 1215.5,1236.83 1215.5,1258.17 1215.5,1279.5C 1194.17,1279.5 1172.83,1279.5 1151.5,1279.5C 1151.5,1258.17 1151.5,1236.83 1151.5,1215.5 Z"/></g>
<g><path style="opacity:1" fill="#99a0af" d="M 1215.5,1215.5 C 1236.83,1215.5 1258.17,1215.5 1279.5,1215.5C 1279.5,1236.83 1279.5,1258.17 1279.5,1279.5C 1258.17,1279.5 1236.83,1279.5 1215.5,1279.5C 1215.5,1258.17 1215.5,1236.83 1215.5,1215.5 Z"/></g>
<g><path style="opacity:1" fill="#f0f2f1" d="M 1279.5,1215.5 C 1300.83,1215.5 1322.17,1215.5 1343.5,1215.5C 1343.5,1236.83 1343.5,1258.17 1343.5,1279.5C 1322.17,1279.5 1300.83,1279.5 1279.5,1279.5C 1279.5,1258.17 1279.5,1236.83 1279.5,1215.5 Z"/></g>
<g><path style="opacity:1" fill="#4b5f71" d="M 1343.5,1215.5 C 1364.83,1215.5 1386.17,1215.5 1407.5,1215.5C 1407.5,1236.83 1407.5,1258.17 1407.5,1279.5C 1386.17,1279.5 1364.83,1279.5 1343.5,1279.5C 1343.5,1258.17 1343.5,1236.83 1343.5,1215.5 Z"/></g>
<g><path style="opacity:1" fill="#000000" d="M 127.5,1279.5 C 148.833,1279.5 170.167,1279.5 191.5,1279.5C 191.5,1300.83 191.5,1322.17 191.5,1343.5C 212.833,1343.5 234.167,1343.5 255.5,1343.5C 255.5,1364.83 255.5,1386.17 255.5,1407.5C 255.5,1428.83 255.5,1450.17 255.5,1471.5C 276.833,1471.5 298.167,1471.5 319.5,1471.5C 362.167,1471.5 404.833,1471.5 447.5,1471.5C 468.833,1471.5 490.167,1471.5 511.5,1471.5C 511.5,1450.17 511.5,1428.83 511.5,1407.5C 511.5,1386.17 511.5,1364.83 511.5,1343.5C 511.5,1322.17 511.5,1300.83 511.5,1279.5C 575.5,1279.5 639.5,1279.5 703.5,1279.5C 703.5,1300.83 703.5,1322.17 703.5,1343.5C 703.5,1364.83 703.5,1386.17 703.5,1407.5C 724.833,1407.5 746.167,1407.5 767.5,1407.5C 810.167,1407.5 852.833,1407.5 895.5,1407.5C 916.833,1407.5 938.167,1407.5 959.5,1407.5C 959.5,1386.17 959.5,1364.83 959.5,1343.5C 980.833,1343.5 1002.17,1343.5 1023.5,1343.5C 1023.5,1386.17 1023.5,1428.83 1023.5,1471.5C 980.833,1471.5 938.167,1471.5 895.5,1471.5C 895.5,1492.83 895.5,1514.17 895.5,1535.5C 660.833,1535.5 426.167,1535.5 191.5,1535.5C 191.5,1514.17 191.5,1492.83 191.5,1471.5C 148.833,1471.5 106.167,1471.5 63.5,1471.5C 63.5,1428.83 63.5,1386.17 63.5,1343.5C 84.8333,1343.5 106.167,1343.5 127.5,1343.5C 127.5,1322.17 127.5,1300.83 127.5,1279.5 Z"/></g>
<g><path style="opacity:1" fill="#fecc64" d="M 191.5,1279.5 C 212.833,1279.5 234.167,1279.5 255.5,1279.5C 255.5,1300.83 255.5,1322.17 255.5,1343.5C 234.167,1343.5 212.833,1343.5 191.5,1343.5C 191.5,1322.17 191.5,1300.83 191.5,1279.5 Z"/></g>
<g><path style="opacity:1" fill="#5c350c" d="M 255.5,1279.5 C 276.833,1279.5 298.167,1279.5 319.5,1279.5C 319.5,1300.83 319.5,1322.17 319.5,1343.5C 298.167,1343.5 276.833,1343.5 255.5,1343.5C 255.5,1322.17 255.5,1300.83 255.5,1279.5 Z"/></g>
<g><path style="opacity:1" fill="#4b5f71" d="M 319.5,1279.5 C 340.833,1279.5 362.167,1279.5 383.5,1279.5C 404.833,1279.5 426.167,1279.5 447.5,1279.5C 447.5,1300.83 447.5,1322.17 447.5,1343.5C 404.833,1343.5 362.167,1343.5 319.5,1343.5C 319.5,1322.17 319.5,1300.83 319.5,1279.5 Z"/></g>
<g><path style="opacity:1" fill="#cbcccc" d="M 703.5,1279.5 C 724.833,1279.5 746.167,1279.5 767.5,1279.5C 767.5,1300.83 767.5,1322.17 767.5,1343.5C 746.167,1343.5 724.833,1343.5 703.5,1343.5C 703.5,1322.17 703.5,1300.83 703.5,1279.5 Z"/></g>
<g><path style="opacity:1" fill="#f0f2f1" d="M 767.5,1279.5 C 788.833,1279.5 810.167,1279.5 831.5,1279.5C 831.5,1300.83 831.5,1322.17 831.5,1343.5C 810.167,1343.5 788.833,1343.5 767.5,1343.5C 767.5,1322.17 767.5,1300.83 767.5,1279.5 Z"/></g>
<g><path style="opacity:1" fill="#4b5f71" d="M 831.5,1279.5 C 852.833,1279.5 874.167,1279.5 895.5,1279.5C 895.5,1300.83 895.5,1322.17 895.5,1343.5C 874.167,1343.5 852.833,1343.5 831.5,1343.5C 831.5,1322.17 831.5,1300.83 831.5,1279.5 Z"/></g>
<g><path style="opacity:1" fill="#000000" d="M 1151.5,1279.5 C 1172.83,1279.5 1194.17,1279.5 1215.5,1279.5C 1215.5,1300.83 1215.5,1322.17 1215.5,1343.5C 1194.17,1343.5 1172.83,1343.5 1151.5,1343.5C 1151.5,1322.17 1151.5,1300.83 1151.5,1279.5 Z"/></g>
<g><path style="opacity:1" fill="#cbcccc" d="M 1215.5,1279.5 C 1236.83,1279.5 1258.17,1279.5 1279.5,1279.5C 1279.5,1300.83 1279.5,1322.17 1279.5,1343.5C 1258.17,1343.5 1236.83,1343.5 1215.5,1343.5C 1215.5,1322.17 1215.5,1300.83 1215.5,1279.5 Z"/></g>
<g><path style="opacity:1" fill="#99a0af" d="M 1279.5,1279.5 C 1300.83,1279.5 1322.17,1279.5 1343.5,1279.5C 1343.5,1300.83 1343.5,1322.17 1343.5,1343.5C 1322.17,1343.5 1300.83,1343.5 1279.5,1343.5C 1279.5,1322.17 1279.5,1300.83 1279.5,1279.5 Z"/></g>
<g><path style="opacity:1" fill="#f0f2f1" d="M 1343.5,1279.5 C 1364.83,1279.5 1386.17,1279.5 1407.5,1279.5C 1407.5,1300.83 1407.5,1322.17 1407.5,1343.5C 1386.17,1343.5 1364.83,1343.5 1343.5,1343.5C 1343.5,1322.17 1343.5,1300.83 1343.5,1279.5 Z"/></g>
<g><path style="opacity:1" fill="#4b5f71" d="M 1407.5,1279.5 C 1428.83,1279.5 1450.17,1279.5 1471.5,1279.5C 1471.5,1300.83 1471.5,1322.17 1471.5,1343.5C 1450.17,1343.5 1428.83,1343.5 1407.5,1343.5C 1407.5,1322.17 1407.5,1300.83 1407.5,1279.5 Z"/></g>
<g><path style="opacity:1" fill="#4b5f71" d="M 255.5,1343.5 C 276.833,1343.5 298.167,1343.5 319.5,1343.5C 319.5,1364.83 319.5,1386.17 319.5,1407.5C 298.167,1407.5 276.833,1407.5 255.5,1407.5C 255.5,1386.17 255.5,1364.83 255.5,1343.5 Z"/></g>
<g><path style="opacity:1" fill="#cbcccc" d="M 319.5,1343.5 C 362.167,1343.5 404.833,1343.5 447.5,1343.5C 447.5,1364.83 447.5,1386.17 447.5,1407.5C 404.833,1407.5 362.167,1407.5 319.5,1407.5C 319.5,1386.17 319.5,1364.83 319.5,1343.5 Z"/></g>
<g><path style="opacity:1" fill="#4b5f71" d="M 447.5,1343.5 C 468.833,1343.5 490.167,1343.5 511.5,1343.5C 511.5,1364.83 511.5,1386.17 511.5,1407.5C 490.167,1407.5 468.833,1407.5 447.5,1407.5C 447.5,1386.17 447.5,1364.83 447.5,1343.5 Z"/></g>
<g><path style="opacity:1" fill="#99a0af" d="M 703.5,1343.5 C 724.833,1343.5 746.167,1343.5 767.5,1343.5C 767.5,1364.83 767.5,1386.17 767.5,1407.5C 746.167,1407.5 724.833,1407.5 703.5,1407.5C 703.5,1386.17 703.5,1364.83 703.5,1343.5 Z"/></g>
<g><path style="opacity:1" fill="#cbcccc" d="M 767.5,1343.5 C 788.833,1343.5 810.167,1343.5 831.5,1343.5C 852.833,1343.5 874.167,1343.5 895.5,1343.5C 895.5,1364.83 895.5,1386.17 895.5,1407.5C 852.833,1407.5 810.167,1407.5 767.5,1407.5C 767.5,1386.17 767.5,1364.83 767.5,1343.5 Z"/></g>
<g><path style="opacity:1" fill="#4b5f71" d="M 895.5,1343.5 C 916.833,1343.5 938.167,1343.5 959.5,1343.5C 959.5,1364.83 959.5,1386.17 959.5,1407.5C 938.167,1407.5 916.833,1407.5 895.5,1407.5C 895.5,1386.17 895.5,1364.83 895.5,1343.5 Z"/></g>
<g><path style="opacity:1" fill="#000000" d="M 1215.5,1343.5 C 1236.83,1343.5 1258.17,1343.5 1279.5,1343.5C 1279.5,1364.83 1279.5,1386.17 1279.5,1407.5C 1258.17,1407.5 1236.83,1407.5 1215.5,1407.5C 1215.5,1386.17 1215.5,1364.83 1215.5,1343.5 Z"/></g>
<g><path style="opacity:1" fill="#cbcccc" d="M 1279.5,1343.5 C 1300.83,1343.5 1322.17,1343.5 1343.5,1343.5C 1343.5,1364.83 1343.5,1386.17 1343.5,1407.5C 1322.17,1407.5 1300.83,1407.5 1279.5,1407.5C 1279.5,1386.17 1279.5,1364.83 1279.5,1343.5 Z"/></g>
<g><path style="opacity:1" fill="#99a0af" d="M 1343.5,1343.5 C 1364.83,1343.5 1386.17,1343.5 1407.5,1343.5C 1407.5,1364.83 1407.5,1386.17 1407.5,1407.5C 1386.17,1407.5 1364.83,1407.5 1343.5,1407.5C 1343.5,1386.17 1343.5,1364.83 1343.5,1343.5 Z"/></g>
<g><path style="opacity:1" fill="#f0f2f1" d="M 1407.5,1343.5 C 1428.83,1343.5 1450.17,1343.5 1471.5,1343.5C 1471.5,1364.83 1471.5,1386.17 1471.5,1407.5C 1471.5,1428.83 1471.5,1450.17 1471.5,1471.5C 1450.17,1471.5 1428.83,1471.5 1407.5,1471.5C 1407.5,1450.17 1407.5,1428.83 1407.5,1407.5C 1407.5,1386.17 1407.5,1364.83 1407.5,1343.5 Z"/></g>
<g><path style="opacity:1" fill="#4b5f71" d="M 1471.5,1343.5 C 1492.83,1343.5 1514.17,1343.5 1535.5,1343.5C 1535.5,1364.83 1535.5,1386.17 1535.5,1407.5C 1514.17,1407.5 1492.83,1407.5 1471.5,1407.5C 1471.5,1386.17 1471.5,1364.83 1471.5,1343.5 Z"/></g>
<g><path style="opacity:1" fill="#28323d" d="M 255.5,1407.5 C 276.833,1407.5 298.167,1407.5 319.5,1407.5C 319.5,1428.83 319.5,1450.17 319.5,1471.5C 298.167,1471.5 276.833,1471.5 255.5,1471.5C 255.5,1450.17 255.5,1428.83 255.5,1407.5 Z"/></g>
<g><path style="opacity:1" fill="#f0f2f1" d="M 319.5,1407.5 C 362.167,1407.5 404.833,1407.5 447.5,1407.5C 447.5,1428.83 447.5,1450.17 447.5,1471.5C 404.833,1471.5 362.167,1471.5 319.5,1471.5C 319.5,1450.17 319.5,1428.83 319.5,1407.5 Z"/></g>
<g><path style="opacity:1" fill="#28323d" d="M 447.5,1407.5 C 468.833,1407.5 490.167,1407.5 511.5,1407.5C 511.5,1428.83 511.5,1450.17 511.5,1471.5C 490.167,1471.5 468.833,1471.5 447.5,1471.5C 447.5,1450.17 447.5,1428.83 447.5,1407.5 Z"/></g>
<g><path style="opacity:1" fill="#000000" d="M 1279.5,1407.5 C 1300.83,1407.5 1322.17,1407.5 1343.5,1407.5C 1343.5,1428.83 1343.5,1450.17 1343.5,1471.5C 1322.17,1471.5 1300.83,1471.5 1279.5,1471.5C 1279.5,1450.17 1279.5,1428.83 1279.5,1407.5 Z"/></g>
<g><path style="opacity:1" fill="#cbcccc" d="M 1343.5,1407.5 C 1364.83,1407.5 1386.17,1407.5 1407.5,1407.5C 1407.5,1428.83 1407.5,1450.17 1407.5,1471.5C 1386.17,1471.5 1364.83,1471.5 1343.5,1471.5C 1343.5,1450.17 1343.5,1428.83 1343.5,1407.5 Z"/></g>
<g><path style="opacity:1" fill="#000000" d="M 1471.5,1407.5 C 1492.83,1407.5 1514.17,1407.5 1535.5,1407.5C 1535.5,1450.17 1535.5,1492.83 1535.5,1535.5C 1471.5,1535.5 1407.5,1535.5 1343.5,1535.5C 1343.5,1514.17 1343.5,1492.83 1343.5,1471.5C 1364.83,1471.5 1386.17,1471.5 1407.5,1471.5C 1428.83,1471.5 1450.17,1471.5 1471.5,1471.5C 1471.5,1450.17 1471.5,1428.83 1471.5,1407.5 Z"/></g>
</svg>
